<svg width="1440" height="1024" viewBox="0 0 1440 1024" fill="none" xmlns="http://www.w3.org/2000/svg">
<rect width="1440" height="1024" fill="white"/>
<path d="M696.953 573.681C697.336 574.079 697.969 574.091 698.367 573.708L704.852 567.468C705.25 567.085 705.262 566.452 704.879 566.054C704.496 565.656 703.863 565.644 703.465 566.027L697.701 571.574L692.153 565.809C691.771 565.411 691.137 565.399 690.74 565.782C690.342 566.165 690.329 566.798 690.712 567.196L696.953 573.681ZM699 451.981L696.673 572.968L698.673 573.007L701 452.019L699 451.981Z" fill="#110404" fill-opacity="0.88"/>
<line x1="700.389" y1="451.686" x2="783.857" y2="555.028" stroke="#90851D"/>
<line x1="698.63" y1="535.664" x2="770.61" y2="456.238" stroke="black"/>
<path d="M717.663 492.288L720.032 492.308L719.056 497.891C718.943 498.555 718.685 499.128 718.283 499.61C717.885 500.09 717.379 500.459 716.766 500.718C716.153 500.975 715.473 501.1 714.725 501.093C713.973 501.087 713.337 500.951 712.82 500.685C712.302 500.417 711.927 500.04 711.696 499.555C711.467 499.067 711.409 498.492 711.523 497.828L712.498 492.245L714.868 492.265L713.928 497.643C713.883 497.913 713.902 498.153 713.986 498.364C714.069 498.575 714.205 498.742 714.395 498.866C714.584 498.987 714.814 499.049 715.084 499.051C715.356 499.053 715.608 498.996 715.839 498.878C716.073 498.758 716.268 498.593 716.423 498.385C716.578 498.176 716.678 497.936 716.723 497.667L717.663 492.288Z" fill="#90851D"/>
<path d="M710.939 503.346L719.598 503.418L719.591 504.237L710.933 504.164L710.939 503.346Z" fill="#90851D"/>
</svg>
