<svg width="104" height="120" viewBox="0 0 104 120" fill="none" xmlns="http://www.w3.org/2000/svg">
<rect width="104" height="120" fill="white"/>
<line x1="34.389" y1="39.6858" x2="77.6456" y2="93.2417" stroke="#2E2C1E" stroke-opacity="0.25"/>
<path d="M30.241 98.693C30.6239 99.091 31.257 99.1031 31.6549 98.7202L38.1401 92.4798C38.538 92.0968 38.5502 91.4638 38.1673 91.0658C37.7843 90.6679 37.1513 90.6557 36.7533 91.0386L30.9887 96.5857L25.4417 90.8211C25.0588 90.4231 24.4257 90.411 24.0277 90.7939C23.6298 91.1769 23.6176 91.8099 24.0006 92.2079L30.241 98.693ZM31.0002 43.9808L29.9617 97.9804L31.9614 98.0189L32.9998 44.0192L31.0002 43.9808Z" fill="black"/>
<path d="M56.7841 43.2727H57.8409V49.0511C57.8409 49.6477 57.7003 50.1804 57.419 50.6491C57.1406 51.1151 56.7472 51.483 56.2386 51.7528C55.7301 52.0199 55.1335 52.1534 54.4489 52.1534C53.7642 52.1534 53.1676 52.0199 52.6591 51.7528C52.1506 51.483 51.7557 51.1151 51.4744 50.6491C51.196 50.1804 51.0568 49.6477 51.0568 49.0511V43.2727H52.1136V48.9659C52.1136 49.392 52.2074 49.7713 52.3949 50.1037C52.5824 50.4332 52.8494 50.6932 53.196 50.8835C53.5455 51.071 53.9631 51.1648 54.4489 51.1648C54.9347 51.1648 55.3523 51.071 55.7017 50.8835C56.0511 50.6932 56.3182 50.4332 56.5028 50.1037C56.6903 49.7713 56.7841 49.392 56.7841 48.9659V43.2727Z" fill="black"/>
<line x1="36.6295" y1="91.6642" x2="66.9725" y2="58.1823" stroke="black"/>
</svg>
